<?xml version="1.0" encoding="UTF-8"?>
<svg width="171px" height="80px" viewBox="0 0 171 80" version="1.1" xmlns="http://www.w3.org/2000/svg" xmlns:xlink="http://www.w3.org/1999/xlink">
    <!-- Generator: Sketch 63.1 (92452) - https://sketch.com -->
    <title>Logo</title>
    <desc>Created with Sketch.</desc>
    <g id="New" stroke="none" stroke-width="1" fill="none" fill-rule="evenodd">
        <g id="Main" transform="translate(-102.000000, -24.000000)">
            <g id="Group-2" transform="translate(102.000000, 24.000000)">
                <path d="M10.112,27.032 L10.24,25.848 L7.2,25.624 L8.576,13.944 C8.704,12.952 8.896,12.856 9.44,12.824 L11.808,12.664 L11.936,11.576 L7.584,11.64 L3.168,11.576 L3.04,12.76 L6.048,12.952 L4.672,24.664 C4.576,25.656 4.32,25.72 3.776,25.784 L1.472,25.912 L1.344,27.032 L5.792,26.968 L10.112,27.032 Z M29.228,27.032 L29.356,26.072 C28.972,26.072 28.3,26.04 28.172,25.976 C27.884,25.752 27.532,25.08 27.404,24.888 L28.684,13.912 C28.78,13.016 28.876,12.856 29.612,12.792 L30.924,12.664 L31.052,11.576 L28.076,11.608 L25.036,11.576 L24.876,12.76 L27.02,12.952 L25.9,22.584 L20.076,13.304 C19.564,12.472 19.18,11.384 17.356,11.384 C15.436,11.384 13.42,12.056 13.42,12.056 L13.484,13.304 C13.484,13.304 15.756,12.824 16.108,12.824 L16.14,12.824 L16.14,12.824 C16.332,12.984 16.876,13.528 16.94,13.592 L15.628,24.664 C15.532,25.656 14.988,25.752 14.316,25.816 L12.652,25.912 L12.524,27.032 L15.916,26.968 L19.628,27.032 L19.756,25.848 L16.972,25.624 L18.188,15.224 L25.42,27.032 L27.148,26.968 L29.228,27.032 Z M42.136,27.032 L42.296,25.848 L38.264,25.656 L38.84,20.792 C38.904,20.248 38.872,20.12 39.352,20.12 L43.064,20.12 L43.064,22.04 L44.216,22.04 L44.824,16.856 L43.672,16.856 L43.224,18.744 L39.064,18.744 L39.608,14.136 C39.704,13.336 40.088,13.016 40.536,13.016 L45.08,13.016 L45.208,15.416 L46.392,15.416 L46.616,12.024 L46.744,11.384 L45.656,11.384 C45.528,11.512 45.464,11.576 44.984,11.576 L42.296,11.576 C42.296,11.576 39.032,11.64 38.648,11.64 L34.2,11.576 L34.072,12.76 L37.08,12.952 L35.672,24.664 C35.576,25.624 35.448,25.752 34.52,25.816 L32.536,25.912 L32.376,27.032 L36.952,26.968 L42.136,27.032 Z M46.916,27.032 L51.62,26.968 L53.7,27 L60.324,27 L60.772,23.192 L59.62,23.192 C59.556,23.384 59.14,25.336 59.044,25.432 C58.948,25.592 56.996,25.624 56.356,25.624 C56.132,25.624 53.028,25.656 53.028,25.656 L53.028,25.528 L53.028,25.528 C53.028,25.176 53.156,24.28 53.156,24.152 L53.604,20.536 C53.668,19.96 53.636,19.896 54.18,19.896 L57.828,19.896 L57.828,21.784 L59.012,21.784 L59.62,16.632 L58.436,16.632 L57.988,18.488 L53.828,18.488 L54.34,14.168 C54.436,13.336 54.82,13.016 55.332,13.016 L59.812,13.016 L59.94,15.416 L61.124,15.416 L61.348,12.024 L61.476,11.384 L60.388,11.384 C60.22,11.552 60.101,11.573 59.8380625,11.575625 L56.612,11.576 L53.38,11.64 L48.932,11.576 L48.804,12.76 L51.812,12.952 L50.436,24.632 C50.308,25.592 50.148,25.72 49.38,25.784 L47.044,25.912 L46.916,27.032 Z M71.024,27.448 C73.168,27.448 74.864,26.488 76.304,25.496 L75.536,24.28 C74.32,25.24 72.656,26.072 71.312,26.072 C68.208,26.072 66.544,23.032 66.544,19.512 C66.544,15.8 69.296,12.536 71.952,12.536 C74.864,12.536 75.888,13.624 75.888,15.832 L77.424,15.832 L77.712,12.152 L77.84,11.384 L76.752,11.384 C76.528,11.576 76.496,11.576 76.176,11.576 C75.888,11.576 73.008,11.128 72.08,11.128 C67.088,11.128 63.568,15.256 63.568,19.672 C63.568,24.696 66.576,27.448 71.024,27.448 Z M89.692,27.032 L89.82,25.848 L86.588,25.624 L87.932,14.136 C88.028,13.208 88.316,13.016 88.892,13.016 C89.5,13.016 90.108,13.048 91.036,13.048 C92.7,13.048 94.716,12.888 94.716,11.192 C94.716,10.648 94.62,9.912 94.62,9.912 L92.988,10.136 C92.892,10.808 92.668,11.288 92.636,11.416 C92.476,11.512 92.06,11.608 91.42,11.608 C90.044,11.608 88.252,11.576 86.876,11.512 C85.564,11.48 83.676,11.416 82.332,11.416 C80.572,11.416 78.748,11.96 78.748,13.624 C78.748,14.072 78.844,15.128 78.844,15.128 L80.38,14.84 C80.476,13.496 81.052,12.92 81.884,12.92 C82.876,12.92 84.316,12.984 85.372,12.984 L83.996,24.568 C83.9,25.592 83.708,25.72 83.036,25.784 L80.54,25.912 L80.412,27.032 L85.084,26.968 L89.692,27.032 Z M109.844,27.032 L109.972,25.848 L106.932,25.624 L108.308,13.944 C108.436,12.952 108.628,12.856 109.172,12.824 L111.54,12.664 L111.668,11.576 L107.316,11.64 L102.9,11.576 L102.772,12.76 L105.78,12.952 L104.404,24.664 C104.308,25.656 104.052,25.72 103.508,25.784 L101.204,25.912 L101.076,27.032 L105.524,26.968 L109.844,27.032 Z M123.456,27.032 L123.584,25.848 L120.352,25.624 L121.696,14.136 C121.792,13.208 122.08,13.016 122.656,13.016 C123.264,13.016 123.872,13.048 124.8,13.048 C126.464,13.048 128.48,12.888 128.48,11.192 C128.48,10.648 128.384,9.912 128.384,9.912 L126.752,10.136 C126.656,10.808 126.432,11.288 126.4,11.416 C126.24,11.512 125.824,11.608 125.184,11.608 C123.808,11.608 122.016,11.576 120.64,11.512 C119.328,11.48 117.44,11.416 116.096,11.416 C114.336,11.416 112.512,11.96 112.512,13.624 C112.512,14.072 112.608,15.128 112.608,15.128 L114.144,14.84 C114.24,13.496 114.816,12.92 115.648,12.92 C116.64,12.92 118.08,12.984 119.136,12.984 L117.76,24.568 C117.664,25.592 117.472,25.72 116.8,25.784 L114.304,25.912 L114.176,27.032 L118.848,26.968 L123.456,27.032 Z" id="infectit" fill="#FFFFFF" fill-rule="nonzero"></path>
                <path d="M56.104,56.032 L56.264,54.848 L52.232,54.656 L52.808,49.792 C52.872,49.248 52.84,49.12 53.32,49.12 L57.032,49.12 L57.032,51.04 L58.184,51.04 L58.792,45.856 L57.64,45.856 L57.192,47.744 L53.032,47.744 L53.576,43.136 C53.672,42.336 54.056,42.016 54.504,42.016 L59.048,42.016 L59.176,44.416 L60.36,44.416 L60.584,41.024 L60.712,40.384 L59.624,40.384 C59.496,40.512 59.432,40.576 58.952,40.576 L56.264,40.576 C56.264,40.576 53,40.64 52.616,40.64 L48.168,40.576 L48.04,41.76 L51.048,41.952 L49.64,53.664 C49.544,54.624 49.416,54.752 48.488,54.816 L46.504,54.912 L46.344,56.032 L50.92,55.968 L56.104,56.032 Z M69.492,56.416 C74.324,56.416 78.132,52.064 78.132,47.968 C78.132,43.712 75.604,40.128 70.772,40.128 C65.908,40.128 62.1,44.416 62.1,48.64 C62.1,52.832 64.628,56.416 69.492,56.416 Z M69.652,55.104 C66.772,55.104 65.044,52.032 65.044,48.608 C65.044,45.152 67.764,41.44 70.612,41.44 C73.492,41.44 75.188,44.672 75.188,47.968 C75.188,51.264 72.532,55.104 69.652,55.104 Z M94.784,56.416 L95.264,55.36 C95.264,55.36 94.368,54.976 93.856,54.464 C92.96,53.632 92.96,53.44 92,51.968 C91.488,51.168 90.944,50.208 90.08,48.864 C91.872,48.48 94.336,46.976 94.336,44.704 C94.336,42.208 92.992,40.288 89.216,40.288 C87.712,40.288 86.464,40.384 85.152,40.608 C84.064,40.768 82.88,41.024 81.376,41.376 C81.056,41.44 80.864,41.536 80.864,41.536 L80.992,42.752 L84.16,42.24 L82.816,53.696 C82.688,54.976 81.76,54.688 79.68,54.912 L79.52,56.032 L83.808,56 L88.96,56.032 L89.088,54.848 L85.408,54.624 L86.784,42.816 C86.912,41.792 87.168,41.728 88.16,41.728 L88.288,41.728 L88.288,41.728 C90.176,41.728 91.392,42.4 91.392,44.736 C91.392,47.136 89.44,47.936 87.552,47.936 L86.88,49.056 C88.096,51.136 88.064,51.168 88.928,52.384 C89.888,53.728 91.008,55.712 92.928,56.064 L94.784,56.416 Z M103.98,56.384 L108.044,48.832 L110.316,56.384 L110.956,56.384 L117.9,42.336 C118.06,41.984 118.316,41.856 118.476,41.824 C118.476,41.824 119.66,41.76 120.204,41.664 L120.332,40.576 L117.42,40.64 L114.732,40.576 L114.604,41.76 L116.652,41.952 L111.724,51.936 L109.036,42.688 C109.004,42.592 109.004,42.496 109.004,42.4 C109.004,41.952 109.42,41.824 110.38,41.76 L110.465504,41.759232 C110.68464,41.75616 111.2888,41.7408 111.852,41.664 L111.98,40.576 L108.076,40.64 L104.748,40.576 L104.588,41.76 L106.956,41.92 L106.924,41.952 C106.572,42.272 106.444,42.624 106.444,43.008 C106.444,43.392 106.572,43.84 106.732,44.352 L107.5,46.912 L104.62,52.288 L101.836,42.784 C101.772,42.592 101.772,42.464 101.772,42.336 C101.772,41.952 101.996,41.824 102.156,41.792 C102.156,41.792 102.38,41.76 103.052,41.664 L103.18,40.576 L100.14,40.64 L96.94,40.576 L96.78,41.76 L98.764,41.952 L103.084,56.384 L103.98,56.384 Z M135.224,56.032 L135.352,54.88 L133.336,54.656 L129.88,40.256 L128.44,40.256 L121.592,54.016 C121.24,54.688 120.92,54.816 119.608,54.912 L119.48,56.032 L121.816,55.968 L125.656,56.032 L125.816,54.848 L122.776,54.656 L124.408,51.456 L129.72,51.456 L130.52,54.688 L127.832,54.848 L127.704,56.032 L132.312,55.968 L135.224,56.032 Z M129.4,50.016 L125.08,50.016 L127.96,44.32 L129.4,50.016 Z M151.972,56.416 L152.452,55.36 C152.452,55.36 151.556,54.976 151.044,54.464 C150.148,53.632 150.148,53.44 149.188,51.968 C148.676,51.168 148.132,50.208 147.268,48.864 C149.06,48.48 151.524,46.976 151.524,44.704 C151.524,42.208 150.18,40.288 146.404,40.288 C144.9,40.288 143.652,40.384 142.34,40.608 C141.252,40.768 140.068,41.024 138.564,41.376 C138.244,41.44 138.052,41.536 138.052,41.536 L138.18,42.752 L141.348,42.24 L140.004,53.696 C139.876,54.976 138.948,54.688 136.868,54.912 L136.708,56.032 L140.996,56 L146.148,56.032 L146.276,54.848 L142.596,54.624 L143.972,42.816 C144.1,41.792 144.356,41.728 145.348,41.728 L145.476,41.728 L145.476,41.728 C147.364,41.728 148.58,42.4 148.58,44.736 C148.58,47.136 146.628,47.936 144.74,47.936 L144.068,49.056 C145.284,51.136 145.252,51.168 146.116,52.384 C147.076,53.728 148.196,55.712 150.116,56.064 L151.972,56.416 Z M162.64,56.032 C167.984,56.032 171.088,51.104 171.088,47.872 C171.088,44.288 169.296,40.288 163.952,40.288 C162.128,40.288 160.848,40.352 159.248,40.576 C157.936,40.736 156.624,41.024 155.088,41.376 C154.736,41.472 154.512,41.536 154.512,41.536 L154.64,42.72 L157.84,42.208 L156.496,53.632 C156.368,54.592 156.176,54.72 155.44,54.784 L153.072,54.912 L152.944,56.032 L157.808,55.968 C162.544,56.032 162.576,56.032 162.64,56.032 Z M161.84,54.624 L161.734414,54.6230234 C161.53925,54.620875 160.948,54.614 159.056,54.592 L160.464,42.624 C160.56,41.952 160.784,41.664 161.232,41.664 L163.152,41.664 C166.64,41.664 168.176,45.248 168.176,47.872 C168.176,51.552 165.392,54.624 161.84,54.624 Z" id="forward" fill="#FFFFFF" fill-rule="nonzero"></path>
                <rect id="Rectangle" fill="#E6BF00" x="0" y="32" width="171" height="2"></rect>
                <path d="M67.352,73.128 C69.128,73.096 70.392,73.128 71.752,71.768 C72.808,70.712 73.848,68.824 73.848,67.288 C73.848,66.184 73.352,65.544 72.184,65.544 C71.736,65.544 71.304,65.592 70.872,65.768 L70.84,66.664 C70.984,66.648 71.096,66.632 71.208,66.632 C71.768,66.632 71.864,66.936 71.864,67.672 C71.864,69.128 71.4,71.752 69.56,72.024 C69.672,70.968 69.88,69.992 69.88,68.92 C69.88,67.8 69.784,66.648 69.592,65.544 C68.616,65.816 67.56,65.912 66.552,66.024 L66.472,66.84 L67.608,66.76 C67.72,67.544 67.752,68.344 67.752,69.128 C67.752,70.456 67.592,71.816 67.352,73.128 Z M76.712,73.208 C78.296,73.208 79.096,72.28 80.056,71.144 L79.544,70.664 C79.016,71.304 78.264,72.12 77.352,72.12 C76.504,72.12 76.392,71 76.392,70.376 C76.392,70.248 76.408,70.12 76.408,69.976 C78.04,69.656 80.216,68.728 80.216,66.744 C80.216,65.64 79.08,65.544 78.216,65.544 C75.688,65.544 74.28,68.008 74.28,70.296 C74.28,71.88 74.968,73.208 76.712,73.208 Z M76.52,69.08 C76.632,68.2 76.936,67.176 77.64,66.584 C77.704,66.52 77.816,66.52 77.912,66.52 C78.2,66.52 78.44,66.648 78.44,66.968 C78.44,68.28 77.72,68.856 76.52,69.08 Z M83.224,73 L83.672,69.432 C83.752,68.84 83.912,67.928 84.216,67.4 C84.296,67.4 84.392,67.384 84.488,67.384 C84.68,67.384 84.84,67.432 84.84,67.688 C84.84,67.768 84.792,67.864 84.792,67.96 L86.088,67.784 C86.44,67.4 86.632,66.968 86.632,66.456 C86.632,65.848 86.12,65.56 85.576,65.56 C84.936,65.56 84.264,66.12 83.912,66.616 L83.912,65.544 C82.968,65.8 81.976,65.896 81.016,66.024 L80.936,66.824 L81.992,66.76 L81.224,73 L83.224,73 Z M87.592,73.208 C88.376,73.208 89.096,72.504 89.096,71.704 C89.096,71.032 88.536,70.52 87.864,70.52 C87.096,70.52 86.36,71.192 86.36,71.976 C86.36,72.664 86.904,73.208 87.592,73.208 Z M97.096,73.208 C98.68,73.208 99.496,72.28 100.44,71.144 L99.928,70.664 C99.416,71.368 98.68,72.12 97.736,72.12 C96.904,72.12 96.824,70.824 96.824,70.232 C96.824,69.096 97.08,67.384 98.008,66.6 C98.072,66.536 98.152,66.536 98.248,66.536 C98.504,66.536 98.568,66.616 98.568,66.904 C98.568,67.192 98.488,67.48 98.424,67.768 L99.992,67.512 C100.328,67.24 100.568,66.984 100.568,66.52 C100.568,65.656 99.208,65.56 98.584,65.56 C96.024,65.56 94.68,67.8 94.68,70.152 C94.68,71.688 95.336,73.208 97.096,73.208 Z M103.976,73.176 C106.456,73.176 107.8,70.92 107.8,68.664 C107.8,66.808 106.824,65.544 104.888,65.544 C102.408,65.544 101.064,67.864 101.064,70.12 C101.064,71.976 102.088,73.176 103.976,73.176 Z M104.072,72.328 C103.224,72.328 103.16,71.352 103.16,70.728 C103.16,70.296 103.208,69.848 103.256,69.416 C103.336,68.776 103.784,66.92 104.328,66.52 C104.424,66.456 104.696,66.392 104.808,66.392 C105.64,66.392 105.704,67.272 105.704,67.912 C105.704,68.424 105.656,68.92 105.608,69.416 C105.512,70.088 105.064,71.816 104.504,72.248 C104.408,72.296 104.168,72.328 104.072,72.328 Z M111.112,73 L111.56,69.432 C111.64,68.84 111.8,67.928 112.104,67.4 C112.184,67.4 112.28,67.384 112.376,67.384 C112.568,67.384 112.728,67.432 112.728,67.688 C112.728,67.768 112.68,67.864 112.68,67.96 L113.976,67.784 C114.328,67.4 114.52,66.968 114.52,66.456 C114.52,65.848 114.008,65.56 113.464,65.56 C112.824,65.56 112.152,66.12 111.8,66.616 L111.8,65.544 C110.856,65.8 109.864,65.896 108.904,66.024 L108.824,66.824 L109.88,66.76 L109.112,73 L111.112,73 Z M117.48,73.176 C119.96,73.176 121.304,70.92 121.304,68.664 C121.304,66.808 120.328,65.544 118.392,65.544 C115.912,65.544 114.568,67.864 114.568,70.12 C114.568,71.976 115.592,73.176 117.48,73.176 Z M117.576,72.328 C116.728,72.328 116.664,71.352 116.664,70.728 C116.664,70.296 116.712,69.848 116.76,69.416 C116.84,68.776 117.288,66.92 117.832,66.52 C117.928,66.456 118.2,66.392 118.312,66.392 C119.144,66.392 119.208,67.272 119.208,67.912 C119.208,68.424 119.16,68.92 119.112,69.416 C119.016,70.088 118.568,71.816 118.008,72.248 C117.912,72.296 117.672,72.328 117.576,72.328 Z M127.64,73.176 C128.504,73.176 129.736,71.8 130.264,71.192 L129.8,70.776 C129.528,71.08 129.208,71.352 128.888,71.608 C129.128,70.456 129.512,68.456 129.512,67.32 C129.512,66.168 128.744,65.544 127.624,65.544 C126.84,65.544 125.88,65.896 125.464,66.616 L125.48,65.544 C124.536,65.8 123.56,65.88 122.584,66.024 L122.488,66.824 L123.544,66.76 L122.696,73 L124.664,73 L125.112,69.992 C125.24,69.128 125.688,67.16 126.52,66.68 C126.616,66.632 126.824,66.632 126.92,66.632 C127.368,66.632 127.512,66.648 127.512,67.176 C127.512,68.072 127.288,69 127.176,69.896 C127.08,70.68 126.776,71.528 126.776,72.312 C126.776,72.856 127.112,73.176 127.64,73.176 Z M135.752,73.208 C136.536,73.208 137.864,71.768 138.344,71.192 L137.88,70.776 C137.576,71.08 137.288,71.368 136.984,71.656 L137.88,65.256 C137.656,65.224 137.416,65.192 137.192,65.192 C136.952,65.192 136.696,65.224 136.472,65.32 C136.312,65.496 136.184,65.672 136.072,65.88 C135.64,65.672 135.208,65.56 134.728,65.56 C132.232,65.56 130.84,68.168 130.84,70.392 C130.84,71.304 131.288,73.208 132.488,73.208 C133.592,73.208 134.584,72.6 135.048,71.576 L135.08,71.576 C135.048,71.8 135.016,72.04 135.016,72.264 C135.016,72.776 135.192,73.208 135.752,73.208 Z M133.464,72.024 C132.984,72.024 132.984,71.096 132.984,70.792 C132.984,70.28 133.032,69.752 133.112,69.24 C133.208,68.552 133.816,66.984 134.408,66.616 C134.536,66.552 134.856,66.536 135,66.536 C135.224,66.536 135.464,66.6 135.64,66.744 L135.464,68.088 C135.336,68.936 134.632,72.024 133.464,72.024 Z M139.624,73.128 C141.4,73.096 142.664,73.128 144.024,71.768 C145.08,70.712 146.12,68.824 146.12,67.288 C146.12,66.184 145.624,65.544 144.456,65.544 C144.008,65.544 143.576,65.592 143.144,65.768 L143.112,66.664 C143.256,66.648 143.368,66.632 143.48,66.632 C144.04,66.632 144.136,66.936 144.136,67.672 C144.136,69.128 143.672,71.752 141.832,72.024 C141.944,70.968 142.152,69.992 142.152,68.92 C142.152,67.8 142.056,66.648 141.864,65.544 C140.888,65.816 139.832,65.912 138.824,66.024 L138.744,66.84 L139.88,66.76 C139.992,67.544 140.024,68.344 140.024,69.128 C140.024,70.456 139.864,71.816 139.624,73.128 Z M149.176,64.36 C149.96,64.36 150.504,63.672 150.504,62.92 C150.504,62.328 150.12,61.896 149.512,61.896 C148.728,61.896 148.168,62.6 148.168,63.352 C148.168,63.944 148.568,64.36 149.176,64.36 Z M147.848,73.176 C148.648889,73.176 149.82084,71.948642 150.393383,71.3135556 L150.488,71.208 L150.04,70.776 C149.752,71.064 149.464,71.352 149.144,71.624 C149.512,69.608 149.816,67.56 150.104,65.544 C149.08,65.752 148.008,65.944 146.968,66.04 L146.856,66.824 L147.896,66.76 C147.608,68.52 147.288,70.296 147.032,72.056 C147.016,72.152 147,72.248 147,72.328 C147,72.872 147.32,73.176 147.848,73.176 Z M153.624,73 L154.072,69.432 C154.152,68.84 154.312,67.928 154.616,67.4 C154.696,67.4 154.792,67.384 154.888,67.384 C155.08,67.384 155.24,67.432 155.24,67.688 C155.24,67.768 155.192,67.864 155.192,67.96 L156.488,67.784 C156.84,67.4 157.032,66.968 157.032,66.456 C157.032,65.848 156.52,65.56 155.976,65.56 C155.336,65.56 154.664,66.12 154.312,66.616 L154.312,65.544 C153.368,65.8 152.376,65.896 151.416,66.024 L151.336,66.824 L152.392,66.76 L151.624,73 L153.624,73 Z M159.576,73.224 C160.504,73.224 161.384,72.36 161.8,71.592 C161.752,71.832 161.72,72.072 161.72,72.312 C161.72,72.792 161.88,73.208 162.408,73.208 C163.272,73.208 164.536,71.8 165.064,71.192 L164.616,70.776 C164.296,71.08 164.008,71.368 163.704,71.656 L164.632,65.752 L162.648,65.752 C162.36,67.56 161.992,70.936 160.504,71.976 C160.456,72.024 160.36,72.024 160.296,72.024 C159.912,72.024 159.736,71.864 159.736,71.464 C159.736,71.352 159.736,71.24 159.768,71.112 L160.68,65.544 C159.624,65.816 158.552,65.88 157.48,66.024 L157.368,66.824 L158.44,66.76 L157.736,71.16 C157.72,71.288 157.704,71.416 157.704,71.528 C157.704,72.632 158.552,73.224 159.576,73.224 Z M167.976,73.176 C169.432,73.176 171.032,72.6 171.032,70.92 C171.032,70.296 170.744,69.752 170.344,69.368 C169.464,68.504 168.056,68.04 168.056,67.192 C168.056,66.728 168.504,66.424 168.936,66.424 C169.272,66.424 169.448,66.552 169.448,66.888 C169.448,67.144 169.4,67.4 169.288,67.64 L170.904,67.4 C171.16,67.144 171.336,66.792 171.336,66.424 C171.336,65.576 169.624,65.56 169.064,65.56 C167.56,65.56 166.056,66.216 166.056,67.896 C166.056,68.376 166.248,68.824 166.536,69.128 C167.368,70.008 169,70.328 169,71.368 C169,71.864 168.6,72.296 168.088,72.296 C167.688,72.296 167.4,72.072 167.4,71.656 C167.4,71.432 167.464,71.208 167.512,71 L165.96,71.24 C165.624,71.496 165.416,71.784 165.416,72.216 C165.416,73.1036522 166.967728,73.1715236 167.746774,73.1757475 L167.976,73.176 L167.976,73.176 Z" id="ver.coronavirus" fill-opacity="0.8" fill="#01F6F7" fill-rule="nonzero"></path>
            </g>
        </g>
    </g>
</svg>